<?xml version="1.0" encoding="iso-8859-1"?>
<!-- Uploaded to: SVG Repo, www.svgrepo.com, Generator: SVG Repo Mixer Tools -->
<svg fill="#000000" height="800px" width="800px" version="1.1" id="Layer_1" xmlns="http://www.w3.org/2000/svg" xmlns:xlink="http://www.w3.org/1999/xlink" 
	 viewBox="0 0 501.333 501.333" xml:space="preserve">
<g>
	<g>
		<path d="M250.667,0C112,0,0,112,0,250.667s112,250.667,250.667,250.667s250.667-112,250.667-250.667S389.333,0,250.667,0z
			 M272,458.667V444.8c0-11.733-9.6-21.333-21.333-21.333c-11.733,0-21.333,9.6-21.333,21.333v13.867
			C131.2,449.067,52.267,370.133,42.667,272h12.8c11.733,0,22.4-9.6,22.4-21.333s-9.6-21.333-21.333-21.333H42.667
			C52.267,131.2,131.2,52.267,229.334,42.667v12.8c0,11.733,9.6,21.333,21.333,21.333C262.4,76.8,272,67.2,272,56.534V42.667
			c98.133,9.6,177.067,88.533,186.667,186.667h-13.867c-11.733,0-21.333,9.6-21.333,21.333S433.067,272,444.801,272h13.867
			C449.067,370.133,370.134,449.067,272,458.667z"/>
	</g>
</g>
<g>
	<g>
		<path d="M375.467,124.8c-6.4-6.4-16-7.466-24.533-3.2L208,199.466c-3.2,2.133-6.4,5.333-8.533,8.533l-76.8,142.933
			c-5.333,7.467-3.2,18.133,3.2,24.533c4.267,4.267,9.6,6.4,14.933,6.4c3.2,0,6.4-1.067,9.6-2.133l142.933-77.867
			c3.2-2.133,6.4-5.333,8.533-8.533l76.8-144C384,141.866,381.866,131.2,375.467,124.8z M267.733,267.733L192,309.333l41.6-75.733
			l75.733-41.6L267.733,267.733z"/>
	</g>
</g>
</svg>